<svg xmlns="http://www.w3.org/2000/svg" width="20.367" height="17.026" viewBox="0 0 20.367 17.026">
  <g id="global" transform="translate(0 -42)">
    <path id="Path_37" data-name="Path 37" d="M383.341,122a2.611,2.611,0,0,0-2.611,2.611c0,2.136,2.611,4.51,2.611,4.51s2.611-2.374,2.611-4.51A2.611,2.611,0,0,0,383.341,122Zm.6,3.023h-1.193V123.83h1.193Z" transform="translate(-365.585 -76.818)" fill="#104772"/>
    <path id="Path_38" data-name="Path 38" d="M2.611,122A2.611,2.611,0,0,0,0,124.611c0,2.136,2.611,4.51,2.611,4.51s2.611-2.374,2.611-4.51A2.611,2.611,0,0,0,2.611,122Zm.6,3.023H2.014V123.83H3.208Z" transform="translate(0 -76.818)" fill="#104772"/>
    <path id="Path_39" data-name="Path 39" d="M22.47,384.176h5.109a25.651,25.651,0,0,1,.314-3.556h-4.47A9.24,9.24,0,0,0,22.47,384.176Z" transform="translate(-21.576 -325.15)" fill="#104772"/>
    <path id="Path_40" data-name="Path 40" d="M65.4,260.026a9.415,9.415,0,0,0-1.041,1.236h3.988a11.42,11.42,0,0,1,1.433-3.7A9.249,9.249,0,0,0,65.4,260.026Z" transform="translate(-61.8 -206.985)" fill="#104772"/>
    <path id="Path_41" data-name="Path 41" d="M200.212,254.957c-.324-1.495-1.323-3.993-2.411-3.963-1.089-.029-2.086,2.468-2.411,3.963Z" transform="translate(-187.617 -200.681)" fill="#104772"/>
    <path id="Path_42" data-name="Path 42" d="M181.25,380.62a24.158,24.158,0,0,0-.33,3.556h5.973a24.156,24.156,0,0,0-.33-3.556Z" transform="translate(-173.723 -325.15)" fill="#104772"/>
    <path id="Path_43" data-name="Path 43" d="M315.759,260.026a9.249,9.249,0,0,0-4.379-2.466,11.419,11.419,0,0,1,1.433,3.7H316.8A9.415,9.415,0,0,0,315.759,260.026Z" transform="translate(-298.993 -206.985)" fill="#104772"/>
    <path id="Path_44" data-name="Path 44" d="M357.66,380.62h-4.47a25.644,25.644,0,0,1,.314,3.556h5.109A9.239,9.239,0,0,0,357.66,380.62Z" transform="translate(-339.14 -325.15)" fill="#104772"/>
    <path id="Path_45" data-name="Path 45" d="M192.981,42a2.611,2.611,0,0,0-2.611,2.611c0,2.136,2.611,4.51,2.611,4.51s2.611-2.374,2.611-4.51A2.611,2.611,0,0,0,192.981,42Zm.6,3.023h-1.193V43.83h1.193Z" transform="translate(-182.797 0)" fill="#104772"/>
  </g>
</svg>
