<svg xmlns="http://www.w3.org/2000/svg" width="62.25" height="10" viewBox="0 0 62.25 10">
  <g id="Group_262" data-name="Group 262" transform="translate(-272.75 -97.5)">
    <line id="Line_8" data-name="Line 8" x2="53" transform="translate(273.5 102.5)" fill="none" stroke="#104772" stroke-linecap="round" stroke-width="1.5"/>
    <g id="Polygon_1" data-name="Polygon 1" transform="translate(325 107.5) rotate(-90)" fill="#104772">
      <path d="M 9.190990447998047 9.500001907348633 L 9.190980911254883 9.500001907348633 L 0.809020459651947 9.500001907348633 L 4.999840259552002 1.118361830711365 L 4.99992561340332 1.118361830711365 L 9.190990447998047 9.500001907348633 Z" stroke="none"/>
      <path d="M 5 2.236079216003418 L 1.618026733398438 9.000001907348633 L 8.381969451904297 9.000001907348633 L 5 2.236079216003418 M 5.000000476837158 0.6180343627929688 C 5.177540302276611 0.6180343627929688 5.355080604553223 0.7101669311523438 5.447210311889648 0.8944320678710938 L 9.638200759887695 9.276391983032227 C 9.804420471191406 9.608841896057129 9.562670707702637 10.00000190734863 9.190980911254883 10.00000190734863 L 0.8090200424194336 10.00000190734863 C 0.4373302459716797 10.00000190734863 0.1955804824829102 9.608841896057129 0.3618001937866211 9.276391983032227 L 4.552790641784668 0.8944320678710938 C 4.644920349121094 0.7101669311523438 4.822460651397705 0.6180343627929688 5.000000476837158 0.6180343627929688 Z" stroke="none" fill="#104772"/>
    </g>
  </g>
</svg>
