<svg xmlns="http://www.w3.org/2000/svg" width="27.054" height="18.938" viewBox="0 0 27.054 18.938">
  <path id="Icon_awesome-cloud-upload-alt" data-name="Icon awesome-cloud-upload-alt" d="M22.726,9.476a4.063,4.063,0,0,0-3.788-5.521,4.037,4.037,0,0,0-2.253.685A6.764,6.764,0,0,0,4.058,8.014c0,.114,0,.228.008.342A6.089,6.089,0,0,0,6.087,20.188H21.643A5.411,5.411,0,0,0,22.726,9.476Zm-6.1,2.6H13.865v4.734a.678.678,0,0,1-.676.676H11.16a.678.678,0,0,1-.676-.676V12.072H7.719a.675.675,0,0,1-.478-1.154L11.7,6.462a.679.679,0,0,1,.955,0l4.455,4.455A.676.676,0,0,1,16.63,12.072Z" transform="translate(0 -1.25)" fill="#104772"/>
</svg>
