<svg id="dashboard_3_" data-name="dashboard (3)" xmlns="http://www.w3.org/2000/svg" width="17.105" height="17.105" viewBox="0 0 17.105 17.105">
  <path id="Path_23" data-name="Path 23" d="M6.592,0H1.247A1.249,1.249,0,0,0,0,1.247V4.454A1.249,1.249,0,0,0,1.247,5.7H6.592A1.249,1.249,0,0,0,7.84,4.454V1.247A1.249,1.249,0,0,0,6.592,0Zm0,0" fill="#104772"/>
  <path id="Path_24" data-name="Path 24" d="M6.592,213.332H1.247A1.249,1.249,0,0,0,0,214.579v7.483a1.249,1.249,0,0,0,1.247,1.247H6.592a1.249,1.249,0,0,0,1.247-1.247v-7.483A1.249,1.249,0,0,0,6.592,213.332Zm0,0" transform="translate(0 -206.205)" fill="#104772"/>
  <path id="Path_25" data-name="Path 25" d="M283.925,341.332h-5.345a1.249,1.249,0,0,0-1.247,1.247v3.207a1.249,1.249,0,0,0,1.247,1.247h5.345a1.249,1.249,0,0,0,1.247-1.247v-3.207A1.249,1.249,0,0,0,283.925,341.332Zm0,0" transform="translate(-268.067 -329.929)" fill="#104772"/>
  <path id="Path_26" data-name="Path 26" d="M283.925,0h-5.345a1.249,1.249,0,0,0-1.247,1.247V8.73a1.249,1.249,0,0,0,1.247,1.247h5.345a1.249,1.249,0,0,0,1.247-1.247V1.247A1.249,1.249,0,0,0,283.925,0Zm0,0" transform="translate(-268.067)" fill="#104772"/>
</svg>
