<svg xmlns="http://www.w3.org/2000/svg" width="19.371" height="13.065" viewBox="0 0 19.371 13.065">
  <g id="delivery-truck_1_" data-name="delivery-truck (1)" transform="translate(0 -67.064)">
    <g id="Group_14" data-name="Group 14" transform="translate(0 67.064)">
      <g id="Group_13" data-name="Group 13" transform="translate(0 0)">
        <path id="Path_27" data-name="Path 27" d="M0,232.578a.337.337,0,0,0,.338.354H.877a2.388,2.388,0,0,1,2.145-1.4,2.389,2.389,0,0,1,2.145,1.4h7.01v-2.868H0Z" transform="translate(0 -222.4)" fill="#104772"/>
        <path id="Path_28" data-name="Path 28" d="M32.062,277.32a1.59,1.59,0,1,0,1.59,1.59A1.59,1.59,0,0,0,32.062,277.32Z" transform="translate(-29.039 -267.434)" fill="#104772"/>
        <path id="Path_29" data-name="Path 29" d="M281.234,191.729l-1.514-.665H275v4.7h.916a2.341,2.341,0,0,1,4.291,0h.9a.337.337,0,0,0,.338-.354v-3.34A.366.366,0,0,0,281.234,191.729Z" transform="translate(-262.07 -185.234)" fill="#104772"/>
        <path id="Path_30" data-name="Path 30" d="M278.164,121.642a1.08,1.08,0,0,0-.975-.58H275V123.6h4.181Z" transform="translate(-262.07 -118.522)" fill="#104772"/>
        <path id="Path_31" data-name="Path 31" d="M11.1,67.064H1.074A1.084,1.084,0,0,0,0,68.166v5.809H12.177V68.166s0,0,0-.005A1.089,1.089,0,0,0,11.1,67.064Z" transform="translate(0 -67.064)" fill="#104772"/>
        <path id="Path_32" data-name="Path 32" d="M307.895,277.32a1.59,1.59,0,1,0,1.59,1.59h0A1.59,1.59,0,0,0,307.895,277.32Z" transform="translate(-291.903 -267.434)" fill="#104772"/>
      </g>
    </g>
  </g>
</svg>
