<svg xmlns="http://www.w3.org/2000/svg" width="20.313" height="14.063" viewBox="0 0 20.313 14.063">
  <g id="Icon_ionic-ios-mail" data-name="Icon ionic-ios-mail" transform="translate(-2.344 -5.469)">
    <path id="Path_11375" data-name="Path 11375" d="M22.49,7.192l-5.254,5.352a.094.094,0,0,0,0,.137L20.913,16.6a.634.634,0,0,1,0,.9.637.637,0,0,1-.9,0l-3.662-3.9a.1.1,0,0,0-.142,0l-.894.908a3.931,3.931,0,0,1-2.8,1.182,4.01,4.01,0,0,1-2.861-1.216l-.859-.874a.1.1,0,0,0-.142,0L4.99,17.5a.637.637,0,0,1-.9,0,.634.634,0,0,1,0-.9l3.677-3.916a.1.1,0,0,0,0-.137L2.51,7.192a.1.1,0,0,0-.166.068V17.969a1.567,1.567,0,0,0,1.563,1.563H21.094a1.567,1.567,0,0,0,1.563-1.562V7.261A.1.1,0,0,0,22.49,7.192Z" fill="#104772"/>
    <path id="Path_11376" data-name="Path 11376" d="M12.5,14.409a2.655,2.655,0,0,0,1.909-.8l7.661-7.8a1.535,1.535,0,0,0-.967-.342H3.9a1.525,1.525,0,0,0-.967.342l7.661,7.8A2.655,2.655,0,0,0,12.5,14.409Z" fill="#104772"/>
  </g>
</svg>
