<svg xmlns="http://www.w3.org/2000/svg" width="12.567" height="16.463" viewBox="0 0 12.567 16.463">
  <g id="Group_130" data-name="Group 130" transform="translate(-50.529)">
    <g id="Group_123" data-name="Group 123" transform="translate(50.529)">
      <g id="Group_122" data-name="Group 122">
        <path id="Path_11359" data-name="Path 11359" d="M62.645.426h0a.759.759,0,0,0-.826.125L60.75,1.5,59.294.2a.77.77,0,0,0-1.028,0L56.812,1.5,55.357.2A.77.77,0,0,0,54.33.2L52.874,1.5,51.8.551a.766.766,0,0,0-1.274.577V15.334a.767.767,0,0,0,1.276.577l1.07-.947,1.456,1.3a.77.77,0,0,0,1.028,0l1.454-1.3,1.455,1.3a.77.77,0,0,0,1.028,0l1.456-1.3,1.071.947a.766.766,0,0,0,1.274-.577V1.129A.759.759,0,0,0,62.645.426ZM61.26,14.387a.77.77,0,0,0-1.024,0l-1.456,1.3-1.454-1.3a.77.77,0,0,0-1.028,0l-1.455,1.3-1.456-1.3a.766.766,0,0,0-1.021,0l-1.067.947V13.279l0-12.15,1.069.947a.77.77,0,0,0,1.024,0l1.456-1.3,1.454,1.3a.77.77,0,0,0,1.028,0l1.455-1.3,1.456,1.3a.766.766,0,0,0,1.021,0l1.067-.947v9.765l0,4.44Z" transform="translate(-50.529)" fill="#104772"/>
      </g>
    </g>
    <g id="Group_125" data-name="Group 125" transform="translate(52.772 7.846)">
      <g id="Group_124" data-name="Group 124">
        <path id="Path_11360" data-name="Path 11360" d="M116.43,203.527h-7.308a.385.385,0,0,0,0,.771h7.308a.385.385,0,0,0,0-.771Z" transform="translate(-108.736 -203.527)" fill="#104772"/>
      </g>
    </g>
    <g id="Group_127" data-name="Group 127" transform="translate(52.772 5.533)">
      <g id="Group_126" data-name="Group 126">
        <path id="Path_11361" data-name="Path 11361" d="M112.961,143.527h-3.839a.385.385,0,0,0,0,.771h3.839a.385.385,0,0,0,0-.771Z" transform="translate(-108.736 -143.527)" fill="#104772"/>
      </g>
    </g>
    <g id="Group_129" data-name="Group 129" transform="translate(52.772 10.159)">
      <g id="Group_128" data-name="Group 128">
        <path id="Path_11362" data-name="Path 11362" d="M116.43,263.527h-7.308a.385.385,0,1,0,0,.771h7.308a.385.385,0,1,0,0-.771Z" transform="translate(-108.736 -263.527)" fill="#104772"/>
      </g>
    </g>
  </g>
</svg>
