<svg xmlns="http://www.w3.org/2000/svg" width="35" height="35" viewBox="0 0 35 35">
  <g id="Group_29" data-name="Group 29" transform="translate(-507 -269)">
    <g id="Rectangle_169" data-name="Rectangle 169" transform="translate(507 269)" fill="#fff" stroke="#707070" stroke-width="0.1">
      <rect width="35" height="35" rx="3" stroke="none"/>
      <rect x="0.05" y="0.05" width="34.9" height="34.9" rx="2.95" fill="none"/>
    </g>
    <g id="main" transform="translate(509 270)">
      <path id="Path_11338" data-name="Path 11338" d="M2.4,16H8.941a1.4,1.4,0,0,1,1.4,1.4V22.54a1.4,1.4,0,0,1-1.4,1.4H2.4A1.4,1.4,0,0,1,1,22.54V17.4A1.4,1.4,0,0,1,2.4,16Z" transform="translate(0 -7.462)" fill="#104772"/>
      <circle id="Ellipse_14" data-name="Ellipse 14" cx="2" cy="2" r="2" transform="translate(14 2)" fill="#104772"/>
      <path id="Path_11339" data-name="Path 11339" d="M12,35.319a2.763,2.763,0,0,0,.794,1.938H20.39V35.316a.465.465,0,0,0-.465-.465H12.468A.467.467,0,0,0,12,35.319Z" transform="translate(-5.864 -17.508)" fill="#104772"/>
      <path id="Path_11340" data-name="Path 11340" d="M34.656,30.9a3.8,3.8,0,0,0-3.887-2.8,3.287,3.287,0,0,0,.112-.836,2.767,2.767,0,0,0-1.239-2.253,5.59,5.59,0,0,1-1.866-4.137h.895a1.4,1.4,0,0,0,1.4-1.393v-.928a1.4,1.4,0,0,0-1.4-1.393H25.476c-2.7-.778-3.513-1.674-4-2.21l-.029-.033a1.731,1.731,0,0,0-.942-1.781A1.7,1.7,0,0,0,18.113,14.3l-1.34,6.4a1.393,1.393,0,0,0,1.214,1.668l2.3.254a.464.464,0,0,1,.415.487l-.362,6.121a2.463,2.463,0,0,1-.69-2.707H12.506c-.753,1.247-1.958,3.586-1.471,5.108a1.886,1.886,0,0,0,1.218,1.224,1.74,1.74,0,0,0,.649.07,2.992,2.992,0,0,0,5.97,0h8.005a.589.589,0,0,0,.409-.2,3.268,3.268,0,0,0,.274.8.465.465,0,0,0,.8.065c.054-.078.113-.154.175-.229A2.989,2.989,0,1,0,34.369,32.1a.46.46,0,0,0,.408-.5,3.626,3.626,0,0,0-.121-.695ZM15.888,34.786a2.058,2.058,0,0,1-2.048-1.853h4.1A2.058,2.058,0,0,1,15.888,34.786Zm9.055-5.1H23.128l.8-7.585a1.393,1.393,0,0,0-.9-1.45L20.742,19.8a.463.463,0,0,1-.291-.536l.348-1.5a7.976,7.976,0,0,0,4.143,1.7Zm6.813,5.24a2.061,2.061,0,0,1-2.317-2.27l.142-.177a5.176,5.176,0,0,1,3.585-.705l.11.085a2.055,2.055,0,0,1-1.52,3.068Z" transform="translate(-5.288 -5.847)" fill="#104772"/>
    </g>
  </g>
</svg>
