<svg xmlns="http://www.w3.org/2000/svg" width="20.788" height="16.94" viewBox="0 0 20.788 16.94">
  <path id="booking" d="M17,54.339l2.652,1.031-7.916,3.078L8.962,57.369l7.795-3.031a.324.324,0,0,1,.243,0Zm8.257,8.853a4.031,4.031,0,1,1-4.031,4.031A4.031,4.031,0,0,1,25.257,63.192Zm1.526,2.193L24.4,67.773l-.815-1.026a.583.583,0,0,0-.913.726l1.2,1.509a.585.585,0,0,0,.893.079l2.85-2.851a.584.584,0,0,0-.826-.826Zm-4.3-8.914-7.916,3.078,2.312.9,7.916-3.078Zm2.774,1.438-8.042,3.127v9.315l3.658-1.422a4.706,4.706,0,0,1,4.385-6.408ZM16.542,70.35V61.035L14.1,60.088v1.967a.111.111,0,0,1-.183.085l-1.294-1.1-1.21.376a.111.111,0,0,1-.144-.106V58.987L8.5,57.908v9.085a.331.331,0,0,0,.214.313Z" transform="translate(-8.5 -54.315)" fill="#104772" fill-rule="evenodd"/>
</svg>
