<svg xmlns="http://www.w3.org/2000/svg" width="21.191" height="21.123" viewBox="0 0 21.191 21.123">
  <path id="steering-wheel" d="M10.6,0A10.607,10.607,0,0,0,0,10.6c.53,14.039,20.662,14.033,21.191,0A10.607,10.607,0,0,0,10.6,0Zm0,1.766a8.837,8.837,0,0,1,8.212,5.6L12.383,8.647a9.452,9.452,0,0,1-3.7,0l-6.3-1.261A8.838,8.838,0,0,1,10.6,1.766ZM1.766,10.69l3.669.734a3.532,3.532,0,0,1,2.413,1.782L8.4,14.224A3.537,3.537,0,0,1,8.825,15.9v3.347A8.842,8.842,0,0,1,1.77,10.69Zm10.6,8.559V15.905a3.537,3.537,0,0,1,.426-1.678l.552-1.018a3.532,3.532,0,0,1,2.413-1.782l3.673-.737A8.842,8.842,0,0,1,12.362,19.249Z" fill="#104772"/>
</svg>
