<svg xmlns="http://www.w3.org/2000/svg" width="35" height="35" viewBox="0 0 35 35">
  <g id="Group_27" data-name="Group 27" transform="translate(-507 -219)">
    <g id="Rectangle_167" data-name="Rectangle 167" transform="translate(507 219)" fill="#fff" stroke="#707070" stroke-width="0.1">
      <rect width="35" height="35" rx="3" stroke="none"/>
      <rect x="0.05" y="0.05" width="34.9" height="34.9" rx="2.95" fill="none"/>
    </g>
    <g id="Group_26" data-name="Group 26" transform="translate(509.449 114.764)">
      <g id="Group_25" data-name="Group 25" transform="translate(0 112.204)">
        <path id="Path_11328" data-name="Path 11328" d="M455.439,395.756A2.559,2.559,0,1,0,458,398.315,2.562,2.562,0,0,0,455.439,395.756Zm0,3.311a.753.753,0,1,1,.753-.753A.753.753,0,0,1,455.439,399.067Z" transform="translate(-430.604 -381.809)" fill="#104772"/>
        <path id="Path_11329" data-name="Path 11329" d="M402.823,179.518H398.4a.6.6,0,0,0-.6.6v11.74a.6.6,0,0,0,.6.6h.638a.6.6,0,0,0,.6-.51,3.469,3.469,0,0,1,6.854,0,.6.6,0,0,0,.6.51h.638a.6.6,0,0,0,.6-.6v-5.87a.6.6,0,0,0-.14-.386l-4.911-5.87A.6.6,0,0,0,402.823,179.518ZM399,184.334v-3.01a.6.6,0,0,1,.6-.6h2.652a.6.6,0,0,1,.462.217l2.508,3.01a.6.6,0,0,1-.463.987h-5.16A.6.6,0,0,1,399,184.334Z" transform="translate(-378.234 -176.207)" fill="#104772"/>
        <path id="Path_11330" data-name="Path 11330" d="M.6,128.459H2.144a.6.6,0,0,0,.6-.51,3.319,3.319,0,0,1,3.427-2.933A3.319,3.319,0,0,1,9.6,127.949a.6.6,0,0,0,.6.51H17.76a.6.6,0,0,0,.6-.6V112.806a.6.6,0,0,0-.6-.6H.6a.6.6,0,0,0-.6.6v15.051A.6.6,0,0,0,.6,128.459Z" transform="translate(0 -112.204)" fill="#104772"/>
        <path id="Path_11331" data-name="Path 11331" d="M76,395.756a2.559,2.559,0,1,0,2.559,2.559A2.562,2.562,0,0,0,76,395.756Zm0,3.311a.753.753,0,1,1,.753-.753A.753.753,0,0,1,76,399.067Z" transform="translate(-69.828 -381.809)" fill="#104772"/>
      </g>
    </g>
  </g>
</svg>
