<svg xmlns="http://www.w3.org/2000/svg" width="13.649" height="19.707" viewBox="0 0 13.649 19.707">
  <g id="XMLID_196_" transform="translate(-75.279)">
    <path id="XMLID_203_" d="M88.738,231.2l-3.274-5.029a1.216,1.216,0,0,0-1.046-.528l-.445,0a.191.191,0,0,0-.055-.065l-.825-.548a.27.27,0,0,0-.31.007l-.682.5-.682-.5a.271.271,0,0,0-.311-.007l-.823.548a.173.173,0,0,0-.052.059l-.452,0a1.213,1.213,0,0,0-1.04.528L75.47,231.2a1.175,1.175,0,0,0,.318,1.609l.727.5a6.089,6.089,0,0,1,2.07-2.586l.187-.288v.155a6.026,6.026,0,0,1,2.208-.895,10.612,10.612,0,0,1-.585-1.754,8.272,8.272,0,0,1-.271-1.7,1.907,1.907,0,0,1,.044-.391l.6,1.971a.269.269,0,0,0,.227.19l.032,0a.271.271,0,0,0,.234-.134l.464-.8.131.13a5.907,5.907,0,0,0-.483,2.427,5.507,5.507,0,0,1,1.471,0,5.9,5.9,0,0,0-.484-2.427l.131-.131.466.8a.269.269,0,0,0,.234.134l.031,0a.271.271,0,0,0,.228-.19l.6-1.966a1.934,1.934,0,0,1,.042.387,10.766,10.766,0,0,1-.856,3.454,6.021,6.021,0,0,1,2.211.9v-.157l.191.292a6.094,6.094,0,0,1,2.064,2.583l.73-.5A1.176,1.176,0,0,0,88.738,231.2Zm-7.637-4.13-.347-1.148.5-.332.5.366Zm2,0-.647-1.114.5-.366.5.332Z" transform="translate(0 -215.934)" fill="#104772"/>
    <path id="XMLID_202_" d="M202.716,408.667l.592.779a2.144,2.144,0,0,1,2.209,0l.592-.779a2.474,2.474,0,0,0-3.392,0Z" transform="translate(-122.31 -391.578)" fill="#104772"/>
    <path id="XMLID_201_" d="M176.693,160.576a2.744,2.744,0,0,0,5.487,0,5.093,5.093,0,0,1-5.487,0Z" transform="translate(-97.334 -154.115)" fill="#104772"/>
    <path id="XMLID_200_" d="M146.452,4.029l-.009.813c0,.643,1.268,1.482,2.832,1.482s2.829-.838,2.83-1.482l-.008-.813a1.851,1.851,0,0,0,.935-.495.972.972,0,0,0,.252-.675c0-1.254-1.8-2.859-4.009-2.859s-4.009,1.6-4.009,2.859a.975.975,0,0,0,.251.675A1.85,1.85,0,0,0,146.452,4.029Z" transform="translate(-67.171)" fill="#104772"/>
    <path id="XMLID_197_" d="M117.336,356.925a5.352,5.352,0,0,0-5.346,5.346h1.347v-.007h0a.543.543,0,0,1,.536-.456h.015l2.081.054a1.419,1.419,0,0,0-.066.409h2.87a1.4,1.4,0,0,0-.067-.409l2.081-.054h.014a.544.544,0,0,1,.536.456h0v.007h1.346A5.351,5.351,0,0,0,117.336,356.925Zm2.308,3.1-1.109,1.461a1.432,1.432,0,0,0-2.4,0l-1.109-1.461a.627.627,0,0,1,.056-.822,3.184,3.184,0,0,1,4.5,0A.626.626,0,0,1,119.643,360.023Z" transform="translate(-35.234 -342.564)" fill="#104772"/>
  </g>
</svg>
